<?xml version="1.0" standalone="no"?>
<!DOCTYPE svg PUBLIC "-//W3C//DTD SVG 20010904//EN"
 "http://www.w3.org/TR/2001/REC-SVG-20010904/DTD/svg10.dtd">
<svg version="1.0" xmlns="http://www.w3.org/2000/svg"
 width="529.000000pt" height="529.000000pt" viewBox="0 0 529.000000 529.000000"
 preserveAspectRatio="xMidYMid meet">
<metadata>
Created by potrace 1.11, written by Peter Selinger 2001-2013
</metadata>
<g transform="translate(0.000000,529.000000) scale(0.100000,-0.100000)"
fill="#000000" stroke="none">
<path d="M3129 4756 c-2 -2 -40 -6 -83 -10 -75 -5 -177 -41 -218 -75 -7 -6
-40 -33 -73 -61 -80 -66 -431 -421 -484 -489 -75 -96 -97 -168 -100 -329 -4
-157 26 -281 94 -392 80 -130 211 -224 352 -253 111 -23 113 -27 30 -80 -72
-46 -399 -238 -569 -335 -18 -11 -118 -71 -223 -134 -104 -63 -201 -121 -214
-129 -14 -8 -67 -42 -119 -76 -52 -35 -97 -63 -99 -63 -8 0 -138 -94 -141
-102 -2 -5 -9 -8 -15 -8 -12 0 -101 -82 -150 -138 -55 -64 -157 -247 -157
-282 0 -5 -5 -21 -12 -37 -6 -15 -12 -32 -14 -38 -18 -73 -22 -118 -20 -243 2
-137 5 -153 34 -236 18 -49 31 -90 30 -92 -2 -1 -133 -4 -293 -7 -325 -5 -344
-8 -410 -72 -76 -73 -103 -162 -82 -268 10 -50 89 -142 151 -174 39 -21 194
-23 1376 -22 884 0 976 2 1048 14 101 17 153 145 101 248 -28 54 -152 178
-206 206 -24 12 -43 27 -43 34 0 23 61 118 100 156 51 49 94 60 238 58 l116
-2 2 -255 c3 -331 6 -352 52 -401 28 -30 48 -41 85 -48 27 -5 207 -9 402 -9
332 -1 356 0 394 19 79 38 112 127 84 223 -12 41 -30 65 -87 121 -39 39 -87
78 -106 88 -19 10 -49 26 -66 36 -17 11 -56 25 -87 32 -65 14 -65 14 -47 139
5 36 12 90 15 120 4 29 7 59 8 64 1 6 22 24 47 41 63 42 189 171 234 239 93
140 145 301 151 461 6 197 -38 358 -144 525 -40 64 -33 55 -135 158 l-79 80 1
164 c0 90 1 170 1 179 1 13 28 15 215 15 264 -1 430 7 481 24 60 19 174 78
229 118 71 52 107 93 186 212 39 58 75 110 80 117 6 7 33 58 61 114 63 126 67
168 23 232 -16 23 -46 50 -65 60 -36 17 -66 21 -265 32 -119 6 -222 33 -273
71 -46 35 -222 193 -368 331 -51 49 -169 107 -241 120 -32 5 -727 14 -733 9z
m744 -199 c69 -30 113 -65 297 -241 178 -171 245 -211 425 -256 100 -25 112
-31 133 -61 13 -19 41 -52 63 -75 l40 -41 -31 -53 c-99 -168 -156 -226 -283
-289 l-82 -41 -290 0 c-159 0 -306 2 -325 6 -62 10 -151 77 -175 132 -8 18
-22 33 -32 33 -59 5 -156 3 -164 -2 -24 -15 55 -160 127 -233 l39 -38 1 -270
1 -270 34 -27 c161 -125 256 -258 310 -435 25 -83 20 -264 -11 -361 -19 -61
-64 -160 -80 -175 -3 -3 -18 -24 -33 -46 -36 -53 -100 -113 -202 -189 l-80
-60 -11 -80 c-10 -69 -27 -208 -39 -325 -12 -109 -17 -145 -21 -151 -2 -4 3
-12 11 -19 8 -7 15 -10 15 -7 0 3 17 1 38 -4 20 -5 57 -11 82 -14 69 -9 86
-14 146 -41 64 -29 154 -112 135 -124 -7 -4 -156 -8 -332 -9 l-319 -2 -1 23
c0 13 -1 216 -1 451 l-1 428 -91 -3 -91 -3 0 -87 c1 -87 0 -88 -25 -88 -108 0
-271 -10 -297 -19 -38 -11 -39 -10 -48 94 -7 80 -10 95 -37 190 -19 66 -74
194 -88 205 -3 3 -23 30 -43 60 -20 31 -47 66 -61 79 l-25 23 -29 -21 c-16
-11 -44 -37 -61 -56 -27 -31 -29 -38 -18 -58 6 -12 15 -24 18 -27 3 -3 20 -27
38 -53 51 -75 102 -195 115 -272 21 -122 10 -289 -25 -377 -28 -71 -91 -202
-100 -208 -4 -3 -10 -17 -14 -31 -6 -24 -2 -27 79 -62 132 -55 258 -149 241
-177 -7 -11 -996 -6 -1040 4 -57 14 -193 73 -246 109 -301 201 -406 619 -233
933 78 142 199 251 425 384 28 16 132 79 274 166 50 31 109 66 132 79 23 13
59 35 80 48 36 23 187 111 263 155 19 11 103 59 185 107 83 48 170 99 195 113
25 14 72 42 105 62 l60 37 0 83 0 82 71 42 c90 53 100 61 155 123 55 62 105
153 113 207 4 21 9 43 13 49 4 7 8 230 10 497 1 267 2 489 3 493 0 5 130 6
288 4 229 -4 295 -8 325 -20z m-802 -29 c1 -24 1 -250 0 -502 -1 -357 -4 -463
-14 -475 -7 -9 -19 -29 -27 -45 -26 -52 -107 -126 -167 -153 -77 -34 -170 -41
-249 -18 -65 19 -159 83 -176 121 -6 13 -14 24 -18 24 -4 0 -14 17 -24 38 -16
35 -20 49 -34 117 -3 17 -6 84 -6 150 -1 175 2 180 281 460 210 211 266 260
338 295 84 41 95 40 96 -12z m-1963 -3578 c2 -8 38 -48 79 -87 l75 -73 -422 0
-421 0 -24 26 c-14 15 -25 30 -26 33 0 3 -2 15 -4 26 -4 20 11 49 39 77 22 23
697 21 704 -2z"/>
<path d="M3846 4266 c-53 -52 -58 -83 -27 -152 36 -80 143 -97 207 -32 33 34
37 46 35 111 -1 30 -9 46 -36 73 -20 19 -41 34 -48 34 -6 1 -28 3 -48 6 -33 5
-41 1 -83 -40z"/>
</g>
</svg>
